<svg xmlns="http://www.w3.org/2000/svg" width="1080" height="2340" viewBox="0 0 1080 2340"><rect width="1080" height="2340" fill="#0A0A0A"/>
  <text x="60" y="74" font-family="'SFMono-Regular', Menlo, 'Courier New', monospace" font-size="34" font-weight="700" fill="#F2F2F0" fill-opacity="1" text-anchor="start" letter-spacing="0">09:41</text>
  <g fill="#F2F2F0">
    <rect x="870" y="54" width="8" height="14" rx="2"/>
    <rect x="884" y="48" width="8" height="20" rx="2"/>
    <rect x="898" y="42" width="8" height="26" rx="2"/>
    <rect x="912" y="36" width="8" height="32" rx="2"/>
    <path d="M 942 66 a 26 26 0 0 1 44 0" fill="none" stroke="#F2F2F0" stroke-width="4"/>
    <circle cx="964" cy="64" r="4"/>
    <rect x="984" y="40" width="52" height="28" rx="7" fill="none" stroke="#F2F2F0" stroke-width="3"/>
    <rect x="990" y="46" width="34" height="16" rx="2" fill="#A9FE00"/>
    <rect x="1040" y="47" width="5" height="14" rx="2"/>
  </g><text x="60" y="210" font-family="'Helvetica Neue', Helvetica, Arial, sans-serif" font-size="30" font-weight="400" fill="#C9C7BB" fill-opacity="1" text-anchor="start" letter-spacing="2">MON 02 JUL</text><text x="60" y="268" font-family="'Helvetica Neue', Helvetica, Arial, sans-serif" font-size="62" font-weight="700" fill="#F2F2F0" fill-opacity="1" text-anchor="start" letter-spacing="0">Today</text><circle cx="988" cy="240" r="42" fill="#4E47E3" fill-opacity="0.25" stroke="#4E47E3" stroke-width="2"/><circle cx="988" cy="224" r="15" fill="#C9C7BB"/><path d="M 962 268 a 26 26 0 0 1 52 0" fill="#C9C7BB"/><circle cx="540" cy="620" r="240" fill="#4E47E3" fill-opacity="0.06"/><circle cx="540" cy="620" r="200" fill="none" stroke="#A9FE00" stroke-opacity="0.16" stroke-width="26"/><circle cx="540" cy="620" r="158" fill="none" stroke="#4E47E3" stroke-opacity="0.16" stroke-width="26"/><circle cx="540" cy="620" r="116" fill="none" stroke="#C9C7BB" stroke-opacity="0.16" stroke-width="26"/><path d="M 411.44 466.79 A 200 200 0 1 1 346.81 671.76" fill="none" stroke="#A9FE00" stroke-width="26" stroke-linecap="round"/><path d="M 461 483.17 A 158 158 0 1 1 485.96 768.47" fill="none" stroke="#4E47E3" stroke-width="26" stroke-linecap="round"/><path d="M 560.14 505.76 A 116 116 0 1 1 465.44 531.14" fill="none" stroke="#C9C7BB" stroke-width="26" stroke-linecap="round"/><text x="540" y="614" font-family="'Helvetica Neue', Helvetica, Arial, sans-serif" font-size="66" font-weight="700" fill="#F2F2F0" fill-opacity="1" text-anchor="middle" letter-spacing="0">78%</text><text x="540" y="664" font-family="'Helvetica Neue', Helvetica, Arial, sans-serif" font-size="26" font-weight="400" fill="#C9C7BB" fill-opacity="1" text-anchor="middle" letter-spacing="4">GOAL</text><rect x="60" y="900" width="304" height="150" rx="24" fill="#F2F2F0" fill-opacity="0.05"/><text x="90" y="962" font-family="'SFMono-Regular', Menlo, 'Courier New', monospace" font-size="44" font-weight="700" fill="#A9FE00" fill-opacity="1" text-anchor="start" letter-spacing="0">8,420</text><text x="90" y="1012" font-family="'Helvetica Neue', Helvetica, Arial, sans-serif" font-size="28" font-weight="400" fill="#C9C7BB" fill-opacity="1" text-anchor="start" letter-spacing="0">Steps</text><rect x="388" y="900" width="304" height="150" rx="24" fill="#F2F2F0" fill-opacity="0.05"/><text x="418" y="962" font-family="'SFMono-Regular', Menlo, 'Courier New', monospace" font-size="44" font-weight="700" fill="#A9FE00" fill-opacity="1" text-anchor="start" letter-spacing="0">612</text><text x="418" y="1012" font-family="'Helvetica Neue', Helvetica, Arial, sans-serif" font-size="28" font-weight="400" fill="#C9C7BB" fill-opacity="1" text-anchor="start" letter-spacing="0">Kcal</text><rect x="716" y="900" width="304" height="150" rx="24" fill="#F2F2F0" fill-opacity="0.05"/><text x="746" y="962" font-family="'SFMono-Regular', Menlo, 'Courier New', monospace" font-size="44" font-weight="700" fill="#A9FE00" fill-opacity="1" text-anchor="start" letter-spacing="0">6.1</text><text x="746" y="1012" font-family="'Helvetica Neue', Helvetica, Arial, sans-serif" font-size="28" font-weight="400" fill="#C9C7BB" fill-opacity="1" text-anchor="start" letter-spacing="0">Km</text><text x="60" y="1160" font-family="'Helvetica Neue', Helvetica, Arial, sans-serif" font-size="38" font-weight="700" fill="#F2F2F0" fill-opacity="1" text-anchor="start" letter-spacing="0">This week</text><rect x="60" y="1200" width="960" height="460" rx="24" fill="#F2F2F0" fill-opacity="0.04"/><rect x="104" y="1410" width="70" height="150" rx="16" fill="#4E47E3" fill-opacity="0.35"/><text x="139" y="1614" font-family="'Helvetica Neue', Helvetica, Arial, sans-serif" font-size="30" font-weight="400" fill="#C9C7BB" fill-opacity="1" text-anchor="middle" letter-spacing="0">M</text><rect x="237.66666666666666" y="1344" width="70" height="216" rx="16" fill="#4E47E3" fill-opacity="0.35"/><text x="272.66666666666663" y="1614" font-family="'Helvetica Neue', Helvetica, Arial, sans-serif" font-size="30" font-weight="400" fill="#C9C7BB" fill-opacity="1" text-anchor="middle" letter-spacing="0">T</text><rect x="371.3333333333333" y="1428" width="70" height="132" rx="16" fill="#4E47E3" fill-opacity="0.35"/><text x="406.3333333333333" y="1614" font-family="'Helvetica Neue', Helvetica, Arial, sans-serif" font-size="30" font-weight="400" fill="#C9C7BB" fill-opacity="1" text-anchor="middle" letter-spacing="0">W</text><rect x="505" y="1290" width="70" height="270" rx="16" fill="#A9FE00" fill-opacity="1"/><text x="540" y="1614" font-family="'Helvetica Neue', Helvetica, Arial, sans-serif" font-size="30" font-weight="400" fill="#C9C7BB" fill-opacity="1" text-anchor="middle" letter-spacing="0">T</text><rect x="638.6666666666666" y="1374" width="70" height="186" rx="16" fill="#4E47E3" fill-opacity="0.35"/><text x="673.6666666666666" y="1614" font-family="'Helvetica Neue', Helvetica, Arial, sans-serif" font-size="30" font-weight="400" fill="#C9C7BB" fill-opacity="1" text-anchor="middle" letter-spacing="0">F</text><rect x="772.3333333333333" y="1455" width="70" height="105" rx="16" fill="#4E47E3" fill-opacity="0.35"/><text x="807.3333333333333" y="1614" font-family="'Helvetica Neue', Helvetica, Arial, sans-serif" font-size="30" font-weight="400" fill="#C9C7BB" fill-opacity="1" text-anchor="middle" letter-spacing="0">S</text><rect x="905.9999999999999" y="1320" width="70" height="240" rx="16" fill="#4E47E3" fill-opacity="0.35"/><text x="940.9999999999999" y="1614" font-family="'Helvetica Neue', Helvetica, Arial, sans-serif" font-size="30" font-weight="400" fill="#C9C7BB" fill-opacity="1" text-anchor="middle" letter-spacing="0">S</text><rect x="0" y="2180" width="1080" height="160" fill="#F2F2F0" fill-opacity="0.03"/><line x1="0" y1="2180" x2="1080" y2="2180" stroke="#F2F2F0" stroke-opacity="0.1" stroke-width="1.5"/><circle cx="135" cy="2246" r="11" fill="none" stroke="#C9C7BB" stroke-opacity="0.5" stroke-width="4"/><rect x="111" y="2272" width="48" height="9" rx="4" fill="#C9C7BB" fill-opacity="0.275"/><rect x="371" y="2200" width="68" height="4" rx="2" fill="#A9FE00"/><circle cx="405" cy="2246" r="11" fill="none" stroke="#A9FE00" stroke-opacity="1" stroke-width="4"/><rect x="381" y="2272" width="48" height="9" rx="4" fill="#A9FE00" fill-opacity="0.55"/><circle cx="675" cy="2246" r="11" fill="none" stroke="#C9C7BB" stroke-opacity="0.5" stroke-width="4"/><rect x="651" y="2272" width="48" height="9" rx="4" fill="#C9C7BB" fill-opacity="0.275"/><circle cx="945" cy="2246" r="11" fill="none" stroke="#C9C7BB" stroke-opacity="0.5" stroke-width="4"/><rect x="921" y="2272" width="48" height="9" rx="4" fill="#C9C7BB" fill-opacity="0.275"/></svg>
